<svg width="0" height="0" xmlns="http://www.w3.org/2000/svg">
<defs>
<symbol width="22px" height="33px" viewBox="0 0 22 33" version="1.1"  xmlns:xlink="http://www.w3.org/1999/xlink" xmlns:sketch="http://www.bohemiancoding.com/sketch/ns">
    <!-- Generator: sketchtool 3.4.4 (395) - http://www.bohemiancoding.com/sketch -->
    <title>mobile</title>
    
    <g id="Page-1" stroke="none" stroke-width="1" fill="none" fill-rule="evenodd" sketch:type="MSPage">
        <g id="Desktop-HD" sketch:type="MSArtboardGroup" transform="translate(-148.000000, -497.000000)" fill-opacity="0.6" fill="#FFFFFF">
            <g id="Page-1" sketch:type="MSLayerGroup" transform="translate(148.000000, 497.000000)">
                <g id="Group-7" sketch:type="MSShapeGroup">
                    <path d="M17.6121633,29.5838716 L3.60443081,29.5838716 C3.22020969,29.5838716 2.94238112,29.2803299 2.94238112,28.8228043 L2.94238112,23.3138716 L18.2740581,23.3138716 L18.2740581,28.8228043 C18.2740581,29.2803299 17.9963844,29.5838716 17.6121633,29.5838716 L17.6121633,29.5838716 Z M3.60443081,2.94244306 L17.6121633,2.94244306 C17.9963844,2.94244306 18.2740581,3.23183004 18.2740581,3.59591174 L18.2740581,20.9924423 L2.94238112,20.9924423 L2.94238112,3.59591174 C2.94238112,3.23183004 3.22020969,2.94244306 3.60443081,2.94244306 L3.60443081,2.94244306 Z M21.2165012,3.63933747 C21.2165012,1.62933913 19.5871621,0 17.5771637,0 L3.63927553,0 C1.62943205,0 -6.19461698e-05,1.62933913 -6.19461698e-05,3.63933747 L-6.19461698e-05,28.8824017 C-6.19461698e-05,30.8924 1.62943205,32.5217391 3.63927553,32.5217391 L17.5771637,32.5217391 C19.5871621,32.5217391 21.2165012,30.8924 21.2165012,28.8824017 L21.2165012,3.63933747 Z M10.8374381,25 L10.6624381,25 C9.74421305,25 8.99993805,25.7834474 8.99993805,26.75 C8.99993805,27.7165526 9.74421305,28.5 10.6624381,28.5 L10.8374381,28.5 C11.7556631,28.5 12.4999381,27.7165526 12.4999381,26.75 C12.4999381,25.7834474 11.7556631,25 10.8374381,25" id="mobile"></path>
                </g>
            </g>
        </g>
    </g>
</symbol>

<symbol id="front-end" width="28px" height="29px" viewBox="0 0 28 29" version="1.1" xmlns="http://www.w3.org/2000/svg" xmlns:xlink="http://www.w3.org/1999/xlink" xmlns:sketch="http://www.bohemiancoding.com/sketch/ns">
    <title>front-end</title>
    
    <g id="Page-1" stroke="none" stroke-width="1" fill="none" fill-rule="evenodd" sketch:type="MSPage">
        <g id="Desktop-HD" sketch:type="MSArtboardGroup" transform="translate(-548.000000, -500.000000)" fill="#FFFFFF">
            <g id="Page-1" sketch:type="MSLayerGroup" transform="translate(548.000000, 500.000000)">
                <path d="M13.4814815,2.72839506 C14.2348395,2.72839506 14.845679,2.11755556 14.845679,1.36419753 C14.845679,0.610839506 14.2348395,0 13.4814815,0 L1.60493827,0 C1.20771605,0 0.77117284,0.0905185185 0.521765432,0.361271605 C0.251012346,0.610679012 0,0.886728395 0,1.28395062 L0,13.1604938 C0,13.9138519 0.610839506,14.5246914 1.36419753,14.5246914 C2.11755556,14.5246914 2.72839506,13.9138519 2.72839506,13.1604938 L2.72839506,2.72839506 L13.4814815,2.72839506 Z M26.6358025,13.4753086 C25.8824444,13.4753086 25.2716049,14.0861481 25.2716049,14.8395062 L25.2716049,25.5925926 L14.8395062,25.5925926 C14.0861481,25.5925926 13.4753086,26.2034321 13.4753086,26.9567901 C13.4753086,27.7101481 14.0861481,28.3209877 14.8395062,28.3209877 L26.7160494,28.3209877 C27.1132716,28.3209877 27.389321,28.0699753 27.6387284,27.7992222 C27.9094815,27.5498148 28,27.1132716 28,26.7160494 L28,14.8395062 C28,14.0861481 27.3891605,13.4753086 26.6358025,13.4753086 Z M12.7160494,19.7777778 C12.7160494,20.4425432 13.2549877,20.9814815 13.9197531,20.9814815 C14.5845185,20.9814815 15.1234568,20.4425432 15.1234568,19.7777778 L15.1234568,16.4274691 L18.2461852,18.1840741 C18.4357284,18.2935309 18.6827284,18.3455309 18.887037,18.3455309 C19.303037,18.3455309 19.7277037,18.1295062 19.9506296,17.7435185 C20.2830123,17.1676667 20.095716,16.4314815 19.5200247,16.0992593 L16.5382099,14.3747531 L19.5275679,12.6502469 C20.1032593,12.3178642 20.3017901,11.581679 19.9694074,11.0059877 C19.6370247,10.4301358 18.8210741,10.2332099 18.2455432,10.5654321 L15.1234568,12.322037 L15.1234568,8.86419753 C15.1234568,8.1994321 14.5845185,7.66049383 13.9197531,7.66049383 C13.2549877,7.66049383 12.7160494,8.1994321 12.7160494,8.86419753 L12.7160494,12.2578395 L9.86503704,10.5654321 C9.28934568,10.2328889 8.59344444,10.4302963 8.26090123,11.0059877 C7.92851852,11.581679 8.14582716,12.3178642 8.72151852,12.6502469 L11.7184198,14.3747531 L8.73660494,16.0992593 C8.16091358,16.4314815 7.96607407,17.1676667 8.29861728,17.7435185 C8.52154321,18.1296667 8.9274321,18.3455309 9.3432716,18.3455309 C9.54758025,18.3455309 9.67485185,18.2935309 9.86439506,18.1840741 L12.7160494,16.4916667 L12.7160494,19.7777778 Z" id="front-end" sketch:type="MSShapeGroup"></path>
            </g>
        </g>
    </g>
</symbol>

<symbol id="programacao" width="25px" height="29px" viewBox="0 0 25 29" version="1.1" xmlns="http://www.w3.org/2000/svg" xmlns:xlink="http://www.w3.org/1999/xlink" xmlns:sketch="http://www.bohemiancoding.com/sketch/ns">
    <!-- Generator: sketchtool 3.4.4 (395) - http://www.bohemiancoding.com/sketch -->
    <title>programacao</title>
    
    <g id="Page-1" stroke="none" stroke-width="1" fill="none" fill-rule="evenodd" sketch:type="MSPage">
        <g id="Desktop-HD" sketch:type="MSArtboardGroup" transform="translate(-348.000000, -500.000000)" fill="#FFFFFF">
            <g id="Page-1" sketch:type="MSLayerGroup" transform="translate(348.000000, 500.000000)">
                <path d="M13.6557091,14.1908405 L8.49666552,9.03212282 C7.89231668,8.42761104 6.91189961,8.42777399 6.30755078,9.03228576 C5.70303901,9.63679753 5.70303901,10.6168887 6.30771372,11.2214005 L10.5128997,15.4260976 L6.30771372,19.6309577 C5.70303901,20.2354694 5.70303901,21.2155606 6.30755078,21.8200724 C6.60996961,22.1223283 7.00591667,22.2733747 7.40218962,22.2733747 C7.79829962,22.2733747 8.19440963,22.1223283 8.49666552,21.8200724 L13.6557091,16.6615176 C13.9938121,16.3234147 14.1425773,15.8678311 14.1024938,15.4260976 C14.1425773,14.984527 13.9938121,14.5289435 13.6557091,14.1908405 Z M23.3169804,19.5529414 L15.8216862,19.5529414 C14.9667338,19.5529414 14.273745,20.2459302 14.273745,21.1008826 C14.273745,21.955835 14.9667338,22.6488238 15.8216862,22.6488238 L23.3169804,22.6488238 C24.1719328,22.6488238 24.8649216,21.955835 24.8649216,21.1008826 C24.8649216,20.2459302 24.1719328,19.5529414 23.3169804,19.5529414 Z M23.398451,25.9076474 L3.38063839,25.9076474 C3.11569604,25.9076474 2.93287604,25.6961497 2.93287604,25.4312074 L2.93287604,3.47879416 C2.93287604,3.2138518 3.11569604,2.93294121 3.38063839,2.93294121 L23.398451,2.93294121 C24.2084316,2.93294121 24.8649216,2.2764512 24.8649216,1.46647061 C24.8649216,0.656490008 24.2084316,0 23.398451,0 L3.38063839,0 C1.49394249,0 -6.51764713e-05,1.59193531 -6.51764713e-05,3.47879416 L-6.51764713e-05,25.4312074 C-6.51764713e-05,27.3180662 1.49394249,28.8405886 3.38063839,28.8405886 L23.398451,28.8405886 C24.2084316,28.8405886 24.8649216,28.1840986 24.8649216,27.374118 C24.8649216,26.5641374 24.2084316,25.9076474 23.398451,25.9076474 Z" id="programacao" sketch:type="MSShapeGroup"></path>
            </g>
        </g>
    </g>
</symbol>

<symbol id="infraestrutura" width="30px" height="30px" viewBox="0 0 30 30" version="1.1" xmlns="http://www.w3.org/2000/svg" xmlns:xlink="http://www.w3.org/1999/xlink" xmlns:sketch="http://www.bohemiancoding.com/sketch/ns">
    <!-- Generator: sketchtool 3.4.4 (395) - http://www.bohemiancoding.com/sketch -->
    <title>infraestrutura</title>
    
    <g id="Page-1" stroke="none" stroke-width="1" fill="none" fill-rule="evenodd" sketch:type="MSPage">
        <g id="Desktop-HD" sketch:type="MSArtboardGroup" transform="translate(-948.000000, -499.000000)" fill="#FFFFFF">
            <g id="Page-1" sketch:type="MSLayerGroup" transform="translate(948.000000, 499.000000)">
                <path d="M15.0108,25.04175 C9.5013,25.04175 5.0188,20.55925 5.0188,15.04975 C5.0188,9.54075 9.5013,5.05825 15.0108,5.05825 C20.5203,5.05825 25.0023,9.54075 25.0023,15.04975 C25.0023,20.55925 20.5203,25.04175 15.0108,25.04175 M29.6763,12.94725 L27.1988,12.48625 C26.8753,10.94175 26.2833,9.50225 25.4458,8.22425 L26.9118,6.11325 C27.0673,5.95775 27.0718,5.70325 26.9163,5.54775 L24.5103,3.13975 C24.3553,2.98425 24.1018,2.98425 23.9463,3.13975 L21.8363,4.59625 C20.5578,3.75875 19.1188,3.14725 17.5743,2.82375 L17.1133,0.35425 C17.1133,0.13425 16.9333,0.00025 16.7138,0.00025 L13.3078,0.00025 C13.0878,0.00025 12.9083,0.13425 12.9083,0.35425 L12.4468,2.84675 C10.9023,3.17025 9.4628,3.76975 8.1843,4.60775 L6.0738,3.14575 C5.9183,2.99025 5.6638,2.98725 5.5083,3.14275 L3.1003,5.54925 C2.9448,5.70475 2.9448,5.95875 3.1003,6.11425 L4.5568,8.22475 C3.7193,9.50325 3.1083,10.94175 2.7848,12.48625 L0.3348,12.94775 C0.1148,12.94775 -0.0002,13.12775 -0.0002,13.34725 L-0.0002,16.75325 C-0.0002,16.97275 0.1148,17.15275 0.3348,17.15275 L2.8173,17.61425 C3.1408,19.15875 3.7358,20.59775 4.5733,21.87625 L3.1088,23.98725 C2.9533,24.14225 2.9493,24.39675 3.1043,24.55225 L5.5108,26.96075 C5.6663,27.11625 5.9193,27.11625 6.0748,26.96075 L8.1853,25.50375 C9.4638,26.34175 10.9028,26.95275 12.4468,27.27625 L12.9083,29.69575 C12.9083,29.91575 13.0878,30.00025 13.3078,30.00025 L16.7138,30.00025 C16.9333,30.00025 17.1133,29.91575 17.1133,29.69575 L17.5748,27.22825 C19.1193,26.90475 20.5583,26.31775 21.8368,25.48025 L23.9478,26.94875 C24.1028,27.10375 24.3573,27.10975 24.5128,26.95475 L26.9213,24.54925 C27.0763,24.39375 27.0763,24.14075 26.9213,23.98575 L25.4648,21.87525 C26.3023,20.59675 26.9133,19.15825 27.2368,17.61375 L29.6763,17.15225 C29.8958,17.15225 29.9998,16.97275 29.9998,16.75275 L29.9998,13.34725 C29.9998,13.12725 29.8958,12.94725 29.6763,12.94725 Z M15.01075,10.51975 C12.51275,10.51975 10.48025,12.55225 10.48025,15.04975 C10.48025,17.54775 12.51275,19.58025 15.01075,19.58025 C17.50875,19.58025 19.54075,17.54775 19.54075,15.04975 C19.54075,12.55225 17.50875,10.51975 15.01075,10.51975 Z M15.01075,17.08025 C13.89125,17.08025 12.98025,16.16925 12.98025,15.04975 C12.98025,13.93075 13.89125,13.01975 15.01075,13.01975 C16.13025,13.01975 17.04075,13.93075 17.04075,15.04975 C17.04075,16.16925 16.13025,17.08025 15.01075,17.08025 Z" id="infraestrutura" sketch:type="MSShapeGroup"></path>
            </g>
        </g>
    </g>
</symbol>

<symbol id="designeux" width="33px" height="25px" viewBox="0 0 33 25" version="1.1" xmlns="http://www.w3.org/2000/svg" xmlns:xlink="http://www.w3.org/1999/xlink" xmlns:sketch="http://www.bohemiancoding.com/sketch/ns">
    <!-- Generator: sketchtool 3.4.4 (395) - http://www.bohemiancoding.com/sketch -->
    <title>designeux</title>
    
    <g id="Page-1" stroke="none" stroke-width="1" fill="none" fill-rule="evenodd" sketch:type="MSPage">
        <g id="Desktop-HD" sketch:type="MSArtboardGroup" transform="translate(-748.000000, -502.000000)" fill="#FFFFFF">
            <g id="Page-1" sketch:type="MSLayerGroup" transform="translate(748.000000, 502.000000)">
                <path d="M32.7292087,11.759 C32.6660783,11.6418261 31.1533391,8.85452174 28.4315565,6.04186957 C24.7494261,2.23682609 20.6014696,0.22526087 16.4358174,0.22526087 C12.2701652,0.22526087 8.1222087,2.23682609 4.44007826,6.04186957 C1.71829565,8.85452174 0.205556522,11.6418261 0.142426087,11.759 C0.00755652174,12.010087 -0.0283130435,12.2879565 0.0209478261,12.5476522 C-0.0283130435,12.8073478 0.00755652174,13.0847391 0.142426087,13.3358261 C0.205556522,13.453 1.71829565,16.2403043 4.44007826,19.0534348 C8.1222087,22.8584783 12.2701652,24.8695652 16.4358174,24.8695652 C20.6014696,24.8695652 24.7494261,22.8584783 28.4315565,19.0534348 C31.1533391,16.2403043 32.6660783,13.453 32.7292087,13.3358261 C32.8640783,13.0852174 32.8994696,12.8073478 32.8502087,12.5481304 C32.8999478,12.2879565 32.8640783,12.010087 32.7292087,11.759 Z M16.4358174,22.4782609 C8.79464348,22.4782609 3.51368696,14.3339565 2.44716522,12.5466957 C3.51033913,10.7584783 8.77407826,2.61656522 16.4358174,2.61656522 C24.076513,2.61656522 29.3579478,10.7603913 30.4239913,12.5476522 C29.356513,14.3363478 24.0760348,22.4782609 16.4358174,22.4782609 Z M18.3104565,12.4490348 C18.3104565,11.8756 18.7753261,11.2533826 19.3487609,11.2533826 L21.8859348,11.2533826 C21.3880652,8.86207826 19.1349783,6.87346957 16.4285,6.87346957 C13.357587,6.87346957 10.8682391,9.41973043 10.8682391,12.4906435 C10.8682391,15.5615565 13.357587,18.1236 16.4285,18.1236 C19.154587,18.1236 21.4210652,16.0359913 21.8959783,13.644687 L19.3487609,13.644687 C18.7753261,13.644687 18.3104565,13.0224696 18.3104565,12.4490348 Z" id="designeux" sketch:type="MSShapeGroup"></path>
            </g>
        </g>
    </g>
</symbol>

<symbol id="business" width="27px" height="30px" viewBox="0 0 27 30" version="1.1" xmlns="http://www.w3.org/2000/svg" xmlns:xlink="http://www.w3.org/1999/xlink" xmlns:sketch="http://www.bohemiancoding.com/sketch/ns">
    <!-- Generator: sketchtool 3.4.4 (395) - http://www.bohemiancoding.com/sketch -->
    <title>business</title>
    
    <g id="Page-1" stroke="none" stroke-width="1" fill="none" fill-rule="evenodd" sketch:type="MSPage">
        <g id="Desktop-HD" sketch:type="MSArtboardGroup" transform="translate(-1148.000000, -499.000000)" fill="#FFFFFF">
            <g id="business" sketch:type="MSLayerGroup" transform="translate(1148.000000, 499.000000)">
                <path d="M24.6681733,21.4641209 C24.2612895,22.1687895 23.3567895,22.4111616 22.6521209,22.0042779 L22.6521209,22.0042779 C21.9472953,21.5973942 21.7049233,20.6928942 22.111807,19.9882256 C22.3849465,19.5152547 22.8819349,19.2505919 23.3924233,19.2505919 C23.6426442,19.2505919 23.8961616,19.3141674 24.1280163,19.4479116 C24.8326849,19.8549523 25.075057,20.7592953 24.6681733,21.4641209 M14.9374988,26.465557 C14.9374988,27.2796384 14.275214,27.9419233 13.4611326,27.9419233 C12.6470512,27.9419233 11.9847663,27.2796384 11.9847663,26.465557 C11.9847663,25.6514756 12.6470512,24.9893477 13.4611326,24.9893477 C14.275214,24.9893477 14.9374988,25.6514756 14.9374988,26.465557 M4.95173721,21.1186151 C4.8498593,21.4994407 4.60544651,21.8176326 4.26402209,22.0147953 C3.92275465,22.2119581 3.52497558,22.2642314 3.14415,22.1621965 C2.76332442,22.0601616 2.44513256,21.8159058 2.24812674,21.4744814 C1.84124302,20.7698128 2.08345814,19.8653128 2.78828372,19.4584291 C3.4931093,19.0513884 4.39745233,19.2939174 4.80433605,19.998743 C5.00149884,20.3400105 5.05377209,20.7377895 4.95173721,21.1186151 M4.79837093,10.0062314 C4.39148721,10.711057 3.48683023,10.9532721 2.78216163,10.5463884 C2.07733605,10.1395047 1.83512093,9.23516163 2.24200465,8.53033605 C2.51498721,8.05736512 3.01213256,7.79270233 3.52262093,7.79270233 C3.77284186,7.79270233 4.0263593,7.85627791 4.25805698,7.99017907 L4.25805698,7.99002209 C4.96288256,8.39690581 5.20525465,9.30140581 4.79837093,10.0062314 M21.9582837,8.87584186 C22.0603186,8.49501628 22.3045744,8.17666744 22.6461558,7.97966163 C22.8734581,7.84827209 23.1258767,7.78124302 23.3815919,7.78124302 C23.5098419,7.78124302 23.6387198,7.79803953 23.7658709,7.83210349 C24.1466965,7.93413837 24.4650453,8.17839419 24.6620512,8.5198186 C24.859214,8.86124302 24.9116442,9.25902209 24.8096093,9.63984767 C24.7075744,10.0206733 24.4633186,10.3388651 24.1218942,10.5358709 C23.4173826,10.9427547 22.5127256,10.7005395 22.1056849,9.99571395 C21.9086791,9.65428953 21.8562488,9.25651047 21.9582837,8.87584186 M25.1483651,17.6806674 C23.8245802,16.9165047 22.2056791,17.1141384 21.1044872,18.0541151 L15.8930163,15.0451849 C15.8928593,15.0137895 15.8895628,14.9830221 15.888307,14.9517837 L21.1082547,11.9379872 C21.7484058,12.4804988 22.5617023,12.7737314 23.3899116,12.7737314 C23.9861093,12.7737314 24.5898419,12.6220919 25.142243,12.3032721 C25.9556965,11.8335977 26.5376093,11.075243 26.7807663,10.1679174 C27.0237663,9.26059186 26.8989698,8.31292326 26.4294523,7.49946977 C25.9597779,6.68601628 25.2014233,6.10410349 24.2940977,5.86094651 C23.3867721,5.61794651 22.4391035,5.74274302 21.62565,6.21226047 C20.8121965,6.68209186 20.2302837,7.44028953 19.9871267,8.34761512 C19.8489872,8.86296977 19.8337605,9.39072558 19.9288884,9.90011512 L14.5700163,12.9487605 C14.5594988,12.9481326 14.5328128,12.9473477 14.4731616,12.9465628 L14.4731616,6.8411093 C15.8859523,6.35479535 16.8876209,5.05392907 16.8876209,3.5289 C16.8876209,1.5896093 15.3490919,0.0118360465 13.4098012,0.0118360465 C11.4705105,0.0118360465 9.83387093,1.5896093 9.83387093,3.5289 C9.83387093,5.05675465 10.8626965,6.35950465 12.1185105,6.84377791 L12.1185105,12.9566093 L6.90091744,9.91141744 C7.1583593,8.49140581 6.57864419,7.03262093 5.25878372,6.24773721 L5.26867326,6.24773721 C3.58933605,5.30587674 1.43922558,5.84320814 0.469894186,7.52254535 C-0.499751163,9.20172558 0.0801209302,11.3504233 1.75945814,12.3199116 C2.3118593,12.6388884 2.91684767,12.7872314 3.51304535,12.7872314 C4.34549302,12.7872314 5.16365581,12.4899174 5.80537674,11.9419116 L11.1002023,14.9979349 L5.80192326,18.0566267 C4.70088837,17.123557 3.08763837,16.9292198 1.76777791,17.6913419 L1.76777791,17.6911849 C0.0885976744,18.6608302 -0.488762791,20.81565 0.480725581,22.4949872 C0.9504,23.3084407 1.70875465,23.8903535 2.61608023,24.1335105 C2.91904535,24.2146674 3.22640581,24.2546965 3.53188256,24.2546965 C4.14126628,24.2546965 4.74264419,24.0948942 5.28452791,23.7820395 C6.0979814,23.3123651 6.67989419,22.5540105 6.92305116,21.6468419 C7.06103372,21.1313302 7.07641744,20.6037314 6.98128953,20.0943419 L12.1547721,17.0620221 C12.168743,17.0708128 12.1185105,17.0791326 12.1185105,17.0876093 L12.1185105,23.1547605 C10.8626965,23.6423302 9.86558023,24.9420977 9.86558023,26.465557 C9.86558023,28.4048477 11.4825977,29.9826209 13.4218884,29.9826209 C15.3611791,29.9826209 16.880086,28.4048477 16.880086,26.465557 C16.880086,24.9359756 15.8859523,23.6321267 14.4731616,23.1491093 L14.4731616,17.1541674 C14.6301384,17.1354872 14.6199349,17.1144523 14.6538419,17.0940453 L19.8915279,20.0954407 C19.634086,21.5154523 20.2922895,23.009557 21.61215,23.7715221 C22.1645512,24.0904988 22.7780163,24.2421384 23.374214,24.2419814 C24.5904698,24.2419814 25.7800395,23.6112488 26.4305512,22.4844698 C27.4000395,20.8051326 26.8275453,18.6501558 25.1483651,17.6806674" sketch:type="MSShapeGroup"></path>
            </g>
        </g>
    </g>
</symbol>

</defs>

</svg>